# Blender 4.4.3
# www.blender.org
mtllib uk_1_indented_flipped.mtl
o cube
v -0.500000 0.500000 -0.000000
v 0.500000 0.500000 -0.000000
v -0.500000 0.312500 -0.000000
v 0.500000 0.312500 -0.000000
v 0.500000 0.500000 1.000000
v -0.500000 0.500000 1.000000
v 0.500000 0.312500 1.000000
v -0.500000 0.312500 1.000000
vn 1.0000 -0.0000 -0.0000
vn -0.0000 -0.0000 -1.0000
vn -1.0000 -0.0000 -0.0000
vn -0.0000 -0.0000 1.0000
vn -0.0000 1.0000 -0.0000
vn -0.0000 -1.0000 -0.0000
vt 0.000000 0.812500
vt 1.000000 0.812500
vt 1.000000 1.000000
vt 0.000000 1.000000
vt 0.000000 0.000000
vt 1.000000 0.000000
s 1
usemtl m_16d635f3-4207-528f-65f4-9dfcabf19753
f 4/1/1 2/4/1 5/3/1 7/2/1
f 3/1/2 1/4/2 2/3/2 4/2/2
f 8/1/3 6/4/3 1/3/3 3/2/3
f 7/1/4 5/4/4 6/3/4 8/2/4
f 6/5/5 5/4/5 2/3/5 1/6/5
f 7/5/6 8/4/6 3/3/6 4/6/6
o cube.001
v -0.500000 0.312500 -0.000000
v 0.125000 0.312500 -0.000000
v -0.500000 -0.500000 0.000000
v 0.125000 -0.500000 0.000000
v 0.125000 0.312500 1.000000
v -0.500000 0.312500 1.000000
v 0.125000 -0.500000 1.000000
v -0.500000 -0.500000 1.000000
vn 1.0000 -0.0000 -0.0000
vn -0.0000 -0.0000 -1.0000
vn -1.0000 -0.0000 -0.0000
vn -0.0000 -0.0000 1.0000
vn -0.0000 -1.0000 -0.0000
vt 0.000000 0.000000
vt 1.000000 0.000000
vt 1.000000 0.812500
vt 0.000000 0.812500
vt 0.625000 0.000000
vt 0.625000 0.812500
vt 0.375000 0.000000
vt 0.375000 0.812500
vt 0.000000 0.375000
vt 1.000000 0.375000
vt 1.000000 1.000000
vt 0.000000 1.000000
s 1
usemtl m_1f0cd980-0ee4-c71a-5bab-9fd4b74b7cb5
f 12/7/7 10/10/7 13/9/7 15/8/7
usemtl m_16d635f3-4207-528f-65f4-9dfcabf19753
f 11/7/8 9/10/8 10/12/8 12/11/8
f 16/7/9 14/10/9 9/9/9 11/8/9
f 15/13/10 13/14/10 14/9/10 16/8/10
f 15/15/11 16/18/11 11/17/11 12/16/11
o cube.002
v -0.500000 0.503125 -0.000000
v 0.500000 0.503125 -0.000000
v 0.500000 0.503125 1.000000
v -0.500000 0.503125 1.000000
vn -0.0000 1.0000 -0.0000
vt 0.000000 0.000000
vt 1.000000 0.000000
vt 1.000000 1.000000
vt 0.000000 1.000000
s 1
usemtl m_c78bc203-b0b9-f395-dca5-3be9722a9175
f 20/19/12 19/22/12 18/21/12 17/20/12
