# Blender 4.2.1 LTS
# www.blender.org
mtllib psd.mtl
o cube
v 0.500000 0.500000 -0.000000
v -0.500000 0.500000 -0.000000
v 0.500000 -0.500000 0.000000
v -0.500000 -0.500000 0.000000
v -0.500000 0.500000 1.000000
v 0.500000 0.500000 1.000000
v -0.500000 -0.500000 1.000000
v 0.500000 -0.500000 1.000000
vn -1.0000 -0.0000 -0.0000
vn -0.0000 -0.0000 -1.0000
vn 1.0000 -0.0000 -0.0000
vn -0.0000 -0.0000 1.0000
vn -0.0000 1.0000 -0.0000
vn -0.0000 -1.0000 -0.0000
vt 0.000000 0.000000
vt 1.000000 0.000000
vt 1.000000 1.000000
vt 0.000000 1.000000
s 0
usemtl m_f27ce99f-7147-614c-3b60-734e0fa5cb20.001
f 4/1/1 7/2/1 5/3/1 2/4/1
f 3/1/2 4/2/2 2/3/2 1/4/2
f 8/1/3 3/2/3 1/3/3 6/4/3
f 7/1/4 8/2/4 6/3/4 5/4/4
f 6/1/5 1/2/5 2/3/5 5/4/5
f 7/1/6 4/2/6 3/3/6 8/4/6
o cube.001
v 0.500000 0.503125 -0.000000
v -0.500000 0.503125 -0.000000
v -0.500000 0.503125 1.000000
v 0.500000 0.503125 1.000000
vn -0.0000 1.0000 -0.0000
vt 0.000000 0.000000
vt 1.000000 0.000000
vt 1.000000 1.000000
vt 0.000000 1.000000
s 0
usemtl m_f02eb3bc-ffab-7a7e-65b2-6b5bb3ec7dcd.001
f 12/5/7 9/6/7 10/7/7 11/8/7
