# Blender 4.4.3
# www.blender.org
mtllib na_1_slab_top_flipped.mtl
o cube
v -0.500000 1.000000 -0.000000
v 0.500000 1.000000 -0.000000
v -0.500000 0.500000 -0.000000
v 0.500000 0.500000 -0.000000
v 0.500000 1.000000 1.000000
v -0.500000 1.000000 1.000000
v 0.500000 0.500000 1.000000
v -0.500000 0.500000 1.000000
vn 1.0000 -0.0000 -0.0000
vn -0.0000 -0.0000 -1.0000
vn -1.0000 -0.0000 -0.0000
vn -0.0000 -0.0000 1.0000
vn -0.0000 1.0000 -0.0000
vn -0.0000 -1.0000 -0.0000
vt 0.000000 0.500000
vt 1.000000 0.500000
vt 1.000000 1.000000
vt 0.000000 1.000000
vt 0.000000 0.000000
vt 1.000000 0.000000
s 1
usemtl m_e82a9c90-5269-4c90-8579-48b55ac103fa
f 4/1/1 2/4/1 5/3/1 7/2/1
f 3/1/2 1/4/2 2/3/2 4/2/2
f 8/1/3 6/4/3 1/3/3 3/2/3
f 7/1/4 5/4/4 6/3/4 8/2/4
f 6/5/5 5/4/5 2/3/5 1/6/5
f 7/5/6 8/4/6 3/3/6 4/6/6
o cube.001
v -0.500000 1.003125 -0.000000
v 0.500000 1.003125 -0.000000
v 0.500000 1.003125 1.000000
v -0.500000 1.003125 1.000000
vn -0.0000 1.0000 -0.0000
vt 0.000000 0.000000
vt 1.000000 0.000000
vt 1.000000 1.000000
vt 0.000000 1.000000
s 1
usemtl m_0e30b19f-b3ff-7209-4489-91e408b60d1b
f 12/7/7 11/10/7 10/9/7 9/8/7
