# Blender 4.2.1 LTS
# www.blender.org
mtllib apg_slab_top.mtl
o cube
v 0.500000 1.000000 -0.000000
v -0.500000 1.000000 -0.000000
v 0.500000 0.500000 -0.000000
v -0.500000 0.500000 -0.000000
v -0.500000 1.000000 1.000000
v 0.500000 1.000000 1.000000
v -0.500000 0.500000 1.000000
v 0.500000 0.500000 1.000000
vn -1.0000 -0.0000 -0.0000
vn -0.0000 -0.0000 -1.0000
vn 1.0000 -0.0000 -0.0000
vn -0.0000 -0.0000 1.0000
vn -0.0000 1.0000 -0.0000
vn -0.0000 -1.0000 -0.0000
vt 0.000000 0.500000
vt 1.000000 0.500000
vt 1.000000 1.000000
vt 0.000000 1.000000
vt 0.000000 0.000000
vt 1.000000 0.000000
s 0
usemtl m_01b79dbd-54f7-710c-225c-8eb32b815e8d.002
f 4/1/1 7/2/1 5/3/1 2/4/1
f 3/1/2 4/2/2 2/3/2 1/4/2
f 8/1/3 3/2/3 1/3/3 6/4/3
f 7/1/4 8/2/4 6/3/4 5/4/4
f 6/5/5 1/6/5 2/3/5 5/4/5
f 7/5/6 4/6/6 3/3/6 8/4/6
o cube.001
v 0.500000 1.003125 -0.000000
v -0.500000 1.003125 -0.000000
v -0.500000 1.003125 1.000000
v 0.500000 1.003125 1.000000
vn -0.0000 1.0000 -0.0000
vt 0.000000 0.000000
vt 1.000000 0.000000
vt 1.000000 1.000000
vt 0.000000 1.000000
s 0
usemtl m_15879b76-7492-27c0-9e66-9147e72babd7.002
f 12/7/7 9/8/7 10/9/7 11/10/7
